<svg xmlns="http://www.w3.org/2000/svg" viewBox="0 0 163.92 148.18"><defs><style>.cls-1,.cls-6{fill:#190232;}.cls-2{fill:#2b2063;}.cls-3,.cls-7{fill:#3c17b8;}.cls-4{fill:#aa5eff;}.cls-5{fill:#ef9bc8;}.cls-5,.cls-6,.cls-7{fill-rule:evenodd;}</style></defs><g id="레이어_2" data-name="레이어 2"><g id="Layer_1" data-name="Layer 1"><path class="cls-1" d="M102.81,1.54l20.76,8,17.55,40.52-12.1,64L75.85,148.18l-27-10.55L0,91.75l11.56-65L54.09,0l48.72,1.54ZM63.93,46.76,54.48,67.21l15.6,10.55,16.77-6.12-.59-19.9-22.33-5Z"/><polygon class="cls-2" points="11.56 26.77 27.16 36.16 43.97 26.81 68.31 5.92 54.09 0 11.56 26.77 11.56 26.77"/><path class="cls-3" d="M124.59,10.82l39.33,49.8-12.85,67.91L75.85,148.18,17.27,95.85l9.89-59.69,44-27.66,2.07-.56,50.39,1.59,1,1.29Zm31.58,51.79L119.89,16.67,74,15.22,33.79,40.51,25.09,93l52.78,47.15L144.8,122.7l11.37-60.09Zm-71.28-.1L78,77.45l11.57,7.83,12.51-4.57-.42-14.46L84.89,62.51ZM70.11,77.3,80.82,54.14l27.9,6.24.75,25.31-21,7.67L68.81,80.09l1.3-2.79Z"/><path class="cls-4" d="M121.73,13.1,160,61.61l-12.1,64L76.86,144.18,21.18,94.44l9.3-56.11L73,11.56l48.72,1.54ZM82.85,58.32,73.39,78.77,89,89.32l16.77-6.12-.59-19.89-22.33-5Z"/><polygon class="cls-5" points="73.3 78.78 89.13 93.11 106.09 83.05 105.76 83 105.77 83.2 89 89.32 73.43 78.79 73.3 78.78 73.3 78.78"/><polygon class="cls-5" points="59.27 20.21 79.64 15.72 117.98 19.68 156.17 62.78 155.05 88.04 160.04 61.61 121.73 13.1 73.01 11.56 59.27 20.21 59.27 20.21"/><path class="cls-6" d="M42,44.54a12,12,0,0,0,5.37,3.52c4.31,1.48,8.66-.1,9.19-1.82C56.87,45.16,59,40.71,54,39c-3.31-1.14-12.16.73-12.69,2.45s-.05,2,.63,3.09Z"/><path class="cls-5" d="M42.11,45.67a12,12,0,0,0,5.38,3.52c4.31,1.48,8.66-.1,9.18-1.82.34-1.08,2.48-5.53-2.49-7.24C50.86,39,42,40.86,41.49,42.59s-.05,2,.62,3.08Z"/><path class="cls-7" d="M41.84,45.13a11.93,11.93,0,0,0,5.38,3.52c4.31,1.48,8.65-.1,9.18-1.82.33-1.08,2.48-5.54-2.49-7.24-3.32-1.14-12.17.73-12.7,2.46s0,2,.63,3.08Z"/><path class="cls-6" d="M129.33,75.12a12.63,12.63,0,0,0,5.66,3.7c4.52,1.56,9.09-.1,9.65-1.92.34-1.13,2.6-5.81-2.62-7.6-3.49-1.2-12.79.77-13.35,2.58s0,2.14.66,3.24Z"/><path class="cls-5" d="M129.48,76.31a12.51,12.51,0,0,0,5.65,3.7c4.53,1.56,9.09-.1,9.65-1.92.35-1.13,2.61-5.81-2.62-7.6-3.49-1.2-12.79.77-13.34,2.58s0,2.14.66,3.24Z"/><path class="cls-7" d="M129.19,75.74a12.59,12.59,0,0,0,5.65,3.7c4.53,1.56,9.1-.1,9.65-1.91.35-1.14,2.61-5.82-2.62-7.61-3.48-1.2-12.78.77-13.34,2.58s-.05,2.14.66,3.24Z"/><path class="cls-6" d="M94.2,134.12a20.58,20.58,0,0,1-9.55,2.11c-7,0-12.66-3.81-12.63-6.19,0-1.48-1-7.95,7.08-8,5.4,0,17.51,6.09,17.48,8.47s-.89,2.56-2.38,3.58Z"/><path class="cls-5" d="M93.47,135.47a20.5,20.5,0,0,1-9.56,2.11c-7,0-12.66-3.81-12.62-6.18,0-1.49-1-8,7.07-8,5.41,0,17.52,6.09,17.48,8.47s-.89,2.56-2.37,3.57Z"/><path class="cls-7" d="M94.12,134.91A20.47,20.47,0,0,1,84.56,137c-7,0-12.65-3.81-12.62-6.18,0-1.49-1-8,7.08-8,5.4,0,17.51,6.09,17.48,8.46s-.9,2.57-2.38,3.58Z"/><path class="cls-6" d="M90,111.55a13.26,13.26,0,0,1-4.67,2.32c-3.42,1-6.17-.12-6.16-1.27,0-.72-.5-3.71,3.46-4.82,2.63-.74,8.54.56,8.52,1.71s-.43,1.37-1.15,2.06Z"/><path class="cls-5" d="M89.61,112.31a13.26,13.26,0,0,1-4.67,2.32c-3.42,1-6.17-.12-6.16-1.28,0-.72-.5-3.71,3.46-4.82,2.63-.73,8.54.57,8.53,1.72s-.44,1.36-1.16,2.06Z"/><path class="cls-7" d="M89.93,111.94a13.1,13.1,0,0,1-4.67,2.33c-3.42,1-6.17-.12-6.16-1.28,0-.72-.5-3.7,3.46-4.81,2.63-.75,8.54.56,8.53,1.71s-.44,1.36-1.16,2Z"/><path class="cls-6" d="M108.32,120.51a9.69,9.69,0,0,1-4.11,1.52c-2.84.37-4.69-1.19-4.41-2.35.17-.72.47-3.8,3.75-4.23,2.19-.29,6.41,2,6.13,3.2a2.71,2.71,0,0,1-1.36,1.86Z"/><path class="cls-5" d="M107.87,121.2a9.69,9.69,0,0,1-4.11,1.52c-2.84.38-4.69-1.18-4.41-2.34.17-.72.47-3.81,3.75-4.23,2.19-.29,6.41,2,6.13,3.2s-.65,1.28-1.36,1.85Z"/><path class="cls-7" d="M108.19,120.9a9.59,9.59,0,0,1-4.1,1.52c-2.84.37-4.69-1.19-4.42-2.35.18-.72.47-3.8,3.76-4.23,2.18-.29,6.41,2,6.12,3.2a2.66,2.66,0,0,1-1.36,1.86Z"/><path class="cls-3" d="M153.27,97.24c-3.24,3.34-4.24,6.17-9.18,8.67a16,16,0,0,1-10.8,1.41l-6.72,2.43s.81-.3,13.25.66c2.76.2,8.34-.21,10.66.5.86.26-.66,3.78-.12,3.56,1.78-.74,1.65-4,2.15-5.3a17.64,17.64,0,0,0,.81-6.55l0-5.38Z"/><path class="cls-5" d="M148.16,117s1.38-5.14,1.1-5.18S126,111,126,111l21.59,2.38.58,3.64Z"/><path class="cls-3" d="M29.69,40.41c-1.22,2.28-.7,8,5.82,12.14,7,4.48,18.18,4.81,20.56,4.59l9.45,4.11s-1.14-.51-21.92.53C39,62,30.16,61.13,26,62.16c-1.55.38-1.22,6-2,5.65-2.45-1.24-.28-6.37-.28-8.49,0-4.67,2.59-17.15,2.61-17.16l3.35-1.75Z"/><path class="cls-5" d="M26.05,71.9s.87-8.19,1.35-8.24,38.31-.43,38.31-.43L29.18,66.17,26.05,71.9Z"/></g></g></svg>